<svg id="visual" viewBox="0 0 900 600" width="900" height="600" xmlns="http://www.w3.org/2000/svg" xmlns:xlink="http://www.w3.org/1999/xlink" version="1.1"><rect x="0" y="0" width="900" height="600" fill="#FFE9E1"></rect><path d="M0 391L25 391.2C50 391.3 100 391.7 150 409.2C200 426.7 250 461.3 300 460.2C350 459 400 422 450 411.5C500 401 550 417 600 426C650 435 700 437 750 429C800 421 850 403 875 394L900 385L900 601L875 601C850 601 800 601 750 601C700 601 650 601 600 601C550 601 500 601 450 601C400 601 350 601 300 601C250 601 200 601 150 601C100 601 50 601 25 601L0 601Z" fill="#FFD2C1" stroke-linecap="round" stroke-linejoin="miter"></path></svg>